<?xml version="1.0" encoding="UTF-8" standalone="no"?><!DOCTYPE svg PUBLIC "-//W3C//DTD SVG 1.1//EN" "http://www.w3.org/Graphics/SVG/1.1/DTD/svg11.dtd"><svg width="100%" height="100%" viewBox="0 0 54 54" version="1.1" xmlns="http://www.w3.org/2000/svg" xmlns:xlink="http://www.w3.org/1999/xlink" xml:space="preserve" xmlns:serif="http://www.serif.com/" style="fill-rule:evenodd;clip-rule:evenodd;stroke-linejoin:round;stroke-miterlimit:2;"><rect id="Artboard1" x="0" y="0" width="53.072" height="53.056" style="fill:none;"/><path d="M26.467,0.258c-14.4,0 -26,11.6 -26,26c0,14.4 11.6,26 26,26c14.4,0 26,-11.6 26,-26c0,-14.4 -11.6,-26 -26,-26Z" style="fill:#494547;fill-rule:nonzero;"/><path d="M37.667,29.658c-1.5,4.9 -3,9.8 -4.4,14.7c-0.5,1.6 -1.6,2.5 -3.1,2.8c-0.5,0.1 -1.1,0.1 -1.6,-0.1c-5,-1.5 -10,-3 -15,-4.6c-1,-0.3 -1.7,-1 -2.2,-1.9c-0.4,-0.8 -0.6,-1.6 -0.4,-2.4c0,-0.2 0.1,-0.4 0.1,-0.5c3,-9.8 6,-19.7 8.9,-29.5c0.6,-1.9 2.4,-2.8 3.7,-2.8c0.4,0 0.7,0.1 1.1,0.2c2.4,0.7 4.8,1.4 7.2,2.2c2.5,0.8 5.1,1.5 7.6,2.3c1.6,0.5 2.7,1.8 2.8,3.5c0,0.5 0,1 -0.2,1.5c-1.5,4.8 -3,9.7 -4.5,14.6Zm-19.4,-5.9c-1,3.3 -2,6.5 -3,9.8c0,0.1 -0.1,0.3 -0.1,0.4c-0.1,0.5 0.1,1 0.6,1.2c4.9,1.5 9.9,3 14.8,4.5c0.2,0.1 0.4,0.1 0.6,0c0.3,-0.1 0.5,-0.4 0.6,-0.7c2,-6.7 4.1,-13.5 6.1,-20.2l0,-0.6c-0.1,-0.4 -0.4,-0.6 -0.7,-0.7c-4.9,-1.5 -9.7,-2.9 -14.6,-4.4l-0.5,0c-0.4,0.1 -0.6,0.3 -0.8,0.7c-0.9,3.3 -2,6.7 -3,10Zm1.6,16.6c-0.4,1.3 0.3,2.6 1.6,3c1.3,0.4 2.6,-0.3 3,-1.6c0.4,-1.3 -0.3,-2.6 -1.6,-3c-1.3,-0.4 -2.7,0.3 -3,1.6Zm10.9,-27.9c0.7,0.2 1.5,0.4 2.2,0.7c0.1,0 0.2,0 0.2,0.1c0.2,0 0.3,0 0.4,-0.2c0.2,-0.4 0.1,-0.6 -0.3,-0.8l-0.1,0c-1.5,-0.4 -2.9,-0.9 -4.4,-1.3c-0.1,0 -0.2,0 -0.3,-0.1c-0.2,0 -0.3,0 -0.4,0.2c-0.2,0.4 -0.1,0.7 0.3,0.8l0.1,0c0.9,0.1 1.6,0.4 2.3,0.6Z" style="fill:#fff;fill-rule:nonzero;"/></svg>